<svg width="36" height="35" viewBox="0 0 36 35" fill="none" xmlns="http://www.w3.org/2000/svg">
<g clip-path="url(#clip0_1_2)">
<path d="M35.4603 0H0.460316V35H35.4603V0Z" fill="white"/>
<path d="M19.2925 26.9283L22.6957 22.6107L27.7603 29.05" stroke="#1B1B1B" stroke-width="0.698413"/>
<path d="M14.7907 29.0507L17.9603 24.85L21.4603 29.4" stroke="#1B1B1B" stroke-width="0.698413"/>
<path d="M25.3754 21.0364C25.6754 21.0364 25.9186 20.7932 25.9186 20.4932C25.9186 20.1932 25.6754 19.95 25.3754 19.95C25.0754 19.95 24.8322 20.1932 24.8322 20.4932C24.8322 20.7932 25.0754 21.0364 25.3754 21.0364Z" fill="#1B1B1B"/>
<path d="M25.375 20.6855C25.4815 20.6855 25.5678 20.5992 25.5678 20.4928C25.5678 20.3863 25.4815 20.3 25.375 20.3C25.2685 20.3 25.1822 20.3863 25.1822 20.4928C25.1822 20.5992 25.2685 20.6855 25.375 20.6855Z" stroke="#1B1B1B" stroke-width="0.698413"/>
<path d="M27.4131 15.3118H14.8173C14.5136 15.3118 14.2223 15.4325 14.0076 15.6472C13.7928 15.862 13.6721 16.1533 13.6721 16.457V29.0528C13.6721 29.3565 13.7928 29.6478 14.0076 29.8626C14.2223 30.0774 14.5136 30.198 14.8173 30.198H27.4131C27.7169 30.198 28.0081 30.0774 28.2229 29.8626C28.4377 29.6478 28.5583 29.3565 28.5583 29.0528V16.457C28.5583 16.1533 28.4377 15.862 28.2229 15.6472C28.0081 15.4325 27.7169 15.3118 27.4131 15.3118ZM27.4131 29.0528H14.8173V16.457H27.4131V29.0528Z" fill="#1B1B1B"/>
<path d="M11.4951 4.9C10.5586 4.89958 9.64294 5.17692 8.86403 5.69694C8.08512 6.21695 7.47792 6.95628 7.11924 7.82141C6.76055 8.68655 6.66648 9.63863 6.84894 10.5572C7.0314 11.4758 7.48218 12.3197 8.14427 12.9821C8.80636 13.6445 9.65001 14.0956 10.5685 14.2785C11.4871 14.4613 12.4392 14.3677 13.3045 14.0094C14.1698 13.6511 14.9094 13.0442 15.4297 12.2655C15.9501 11.4869 16.2278 10.5713 16.2278 9.6348C16.228 8.37936 15.7295 7.17526 14.842 6.28733C13.9544 5.3994 12.7506 4.90037 11.4951 4.9V4.9ZM13.5552 9.9995H11.8598V11.6956C11.8598 11.7922 11.8214 11.8849 11.7531 11.9532C11.6848 12.0216 11.5921 12.06 11.4955 12.06C11.3988 12.06 11.3062 12.0216 11.2378 11.9532C11.1695 11.8849 11.1311 11.7922 11.1311 11.6956V9.9995H9.43782C9.34119 9.9995 9.24851 9.96111 9.18018 9.89278C9.11186 9.82446 9.07347 9.73178 9.07347 9.63515C9.07347 9.53852 9.11186 9.44584 9.18018 9.37752C9.24851 9.30919 9.34119 9.2708 9.43782 9.2708H11.1311V7.5775C11.1311 7.48087 11.1695 7.38819 11.2378 7.31987C11.3062 7.25154 11.3988 7.21315 11.4955 7.21315C11.5921 7.21315 11.6848 7.25154 11.7531 7.31987C11.8214 7.38819 11.8598 7.48087 11.8598 7.5775V9.2708H13.5559C13.6526 9.2708 13.7452 9.30919 13.8136 9.37752C13.8819 9.44584 13.9203 9.53852 13.9203 9.63515C13.9203 9.73178 13.8819 9.82446 13.8136 9.89278C13.7452 9.96111 13.6526 9.9995 13.5559 9.9995H13.5552Z" stroke="#FF8800" stroke-width="0.698413"/>
</g>
<defs>
<clipPath id="clip0_1_2">
<rect width="35" height="35" fill="white" transform="translate(0.460316)"/>
</clipPath>
</defs>
</svg>
