<svg width="36" height="35" viewBox="0 0 36 35" fill="none" xmlns="http://www.w3.org/2000/svg">
<g clip-path="url(#clip0_1_41)">
<path d="M35.6984 0H0.698412V35H35.6984V0Z" fill="white"/>
<path d="M17.1411 19.1638C14.5246 19.1638 12.396 21.2924 12.396 23.9089C12.396 26.5254 14.5246 28.654 17.1411 28.654C19.7576 28.654 21.8862 26.5254 21.8862 23.9089C21.8862 21.2924 19.7576 19.1638 17.1411 19.1638ZM17.1411 18.2C20.294 18.2 22.85 20.756 22.85 23.9089C22.85 27.0618 20.294 29.6178 17.1411 29.6178C13.9882 29.6178 11.4322 27.0618 11.4322 23.9089C11.4322 20.756 13.9882 18.2 17.1411 18.2Z" fill="#1B1B1B"/>
<line x1="25.4796" y1="21.2433" x2="19.8796" y2="31.7433" stroke="white" stroke-width="6.98413"/>
<path d="M28.2298 28.4739H19.9648L24.0973 17.8474L28.2298 28.4739Z" fill="white"/>
<path d="M24.4984 19.697L20.1719 28.35H28.8249L24.4984 19.697ZM24.4984 16.8L30.7984 29.4H18.1984L24.4984 16.8Z" fill="#1B1B1B"/>
<path d="M11.9348 5.6C10.9585 5.6 10.0041 5.88951 9.1923 6.43193C8.38051 6.97435 7.7478 7.74531 7.37418 8.64732C7.00055 9.54933 6.90279 10.5419 7.09327 11.4994C7.28374 12.457 7.75389 13.3366 8.44425 14.027C9.13462 14.7173 10.0142 15.1875 10.9718 15.3779C11.9293 15.5684 12.9219 15.4707 13.8239 15.097C14.7259 14.7234 15.4969 14.0907 16.0393 13.2789C16.5817 12.4671 16.8712 11.5127 16.8712 10.5364C16.8714 9.88809 16.7438 9.2461 16.4958 8.6471C16.2478 8.04811 15.8842 7.50385 15.4258 7.04543C14.9674 6.587 14.4231 6.2234 13.8241 5.97539C13.2251 5.72737 12.5831 5.59981 11.9348 5.6V5.6ZM14.0824 10.9158H12.3142V12.684C12.3142 12.7847 12.2742 12.8813 12.203 12.9525C12.1318 13.0237 12.0352 13.0637 11.9345 13.0637C11.8338 13.0637 11.7372 13.0237 11.6659 12.9525C11.5947 12.8813 11.5547 12.7847 11.5547 12.684V10.9158H9.78652C9.6858 10.9158 9.58921 10.8758 9.51799 10.8046C9.44678 10.7334 9.40677 10.6368 9.40677 10.536C9.40677 10.4353 9.44678 10.3387 9.51799 10.2675C9.58921 10.1963 9.6858 10.1563 9.78652 10.1563H11.5547V8.3881C11.5547 8.28738 11.5947 8.19079 11.6659 8.11957C11.7372 8.04836 11.8338 8.00835 11.9345 8.00835C12.0352 8.00835 12.1318 8.04836 12.203 8.11957C12.2742 8.19079 12.3142 8.28738 12.3142 8.3881V10.1563H14.0824C14.1831 10.1563 14.2797 10.1963 14.3509 10.2675C14.4222 10.3387 14.4622 10.4353 14.4622 10.536C14.4622 10.6368 14.4222 10.7334 14.3509 10.8046C14.2797 10.8758 14.1831 10.9158 14.0824 10.9158V10.9158Z" stroke="#FF8800" stroke-width="0.698413"/>
</g>
<defs>
<clipPath id="clip0_1_41">
<rect width="35" height="35" fill="white" transform="translate(0.698412)"/>
</clipPath>
</defs>
</svg>
