<svg width="35" height="35" viewBox="0 0 35 35" fill="none" xmlns="http://www.w3.org/2000/svg">
<path d="M35 0H0V35H35V0Z" fill="white"/>
<path d="M24.0126 17.3324H21.1398V25.3H19.9674V17.3324H17.1008V16.3625H24.0126V17.3324Z" fill="#1B1B1B"/>
<path d="M24.0126 17.3324V17.6816H24.3618V17.3324H24.0126ZM21.1398 17.3324V16.9832H20.7906V17.3324H21.1398ZM21.1398 25.3V25.6492H21.4891V25.3H21.1398ZM19.9674 25.3H19.6182V25.6492H19.9674V25.3ZM19.9674 17.3324H20.3166V16.9832H19.9674V17.3324ZM17.1008 17.3324H16.7516V17.6816H17.1008V17.3324ZM17.1008 16.3625V16.0133H16.7516V16.3625H17.1008ZM24.0126 16.3625H24.3618V16.0133H24.0126V16.3625ZM24.0126 16.9832H21.1398V17.6816H24.0126V16.9832ZM20.7906 17.3324V25.3H21.4891V17.3324H20.7906ZM21.1398 24.9508H19.9674V25.6492H21.1398V24.9508ZM20.3166 25.3V17.3324H19.6182V25.3H20.3166ZM19.9674 16.9832H17.1008V17.6816H19.9674V16.9832ZM17.45 17.3324V16.3625H16.7516V17.3324H17.45ZM17.1008 16.7117H24.0126V16.0133H17.1008V16.7117ZM23.6634 16.3625V17.3324H24.3618V16.3625H23.6634Z" fill="#1B1B1B"/>
<path d="M11.2756 7.7C10.2915 7.7 9.32954 7.99181 8.51131 8.53854C7.69308 9.08527 7.05534 9.86235 6.67875 10.7715C6.30216 11.6807 6.20363 12.6811 6.39561 13.6463C6.58759 14.6115 7.06147 15.498 7.75732 16.1939C8.45317 16.8897 9.33974 17.3636 10.3049 17.5556C11.2701 17.7476 12.2705 17.649 13.1797 17.2725C14.0889 16.8959 14.8659 16.2581 15.4127 15.4399C15.9594 14.6217 16.2512 13.6597 16.2512 12.6756C16.2513 12.0222 16.1227 11.3751 15.8726 10.7714C15.6226 10.1677 15.2561 9.61916 14.7941 9.15711C14.332 8.69507 13.7835 8.32857 13.1798 8.07856C12.5761 7.82854 11.929 7.69991 11.2756 7.7V7.7ZM13.4407 13.0578H11.6578V14.84C11.6536 14.9386 11.6114 15.0318 11.5402 15.1001C11.4689 15.1684 11.374 15.2065 11.2753 15.2065C11.1765 15.2065 11.0816 15.1684 11.0104 15.1001C10.9391 15.0318 10.8969 14.9386 10.8927 14.84V13.0578H9.11051C9.05889 13.06 9.00736 13.0517 8.95903 13.0335C8.91069 13.0153 8.86654 12.9875 8.82924 12.9517C8.79193 12.916 8.76225 12.8731 8.74197 12.8256C8.72169 12.778 8.71124 12.7269 8.71124 12.6752C8.71124 12.6236 8.72169 12.5725 8.74197 12.5249C8.76225 12.4774 8.79193 12.4345 8.82924 12.3988C8.86654 12.363 8.91069 12.3352 8.95903 12.317C9.00736 12.2988 9.05889 12.2905 9.11051 12.2927H10.8927V10.5105C10.8905 10.4589 10.8988 10.4074 10.917 10.359C10.9352 10.3107 10.963 10.2665 10.9988 10.2292C11.0345 10.1919 11.0774 10.1622 11.125 10.142C11.1725 10.1217 11.2236 10.1112 11.2753 10.1112C11.3269 10.1112 11.378 10.1217 11.4256 10.142C11.4731 10.1622 11.516 10.1919 11.5517 10.2292C11.5875 10.2665 11.6153 10.3107 11.6335 10.359C11.6518 10.4074 11.66 10.4589 11.6578 10.5105V12.2927H13.44C13.4916 12.2905 13.5431 12.2988 13.5915 12.317C13.6398 12.3352 13.684 12.363 13.7213 12.3988C13.7586 12.4345 13.7883 12.4774 13.8085 12.5249C13.8288 12.5725 13.8393 12.6236 13.8393 12.6752C13.8393 12.7269 13.8288 12.778 13.8085 12.8256C13.7883 12.8731 13.7586 12.916 13.7213 12.9517C13.684 12.9875 13.6398 13.0153 13.5915 13.0335C13.5431 13.0517 13.4916 13.06 13.44 13.0578H13.4407Z" stroke="#DC7500" stroke-width="0.698413"/>
<path d="M16.3722 25.8015L14.6286 26.5069L14.7951 24.4106L16.3722 25.8015Z" fill="#1B1B1B"/>
<path d="M15.1262 25.229L15.0728 25.9013L15.632 25.6751L15.1262 25.229ZM14.464 23.5922L17.1125 25.928L14.1845 27.1125L14.464 23.5922Z" fill="#1B1B1B"/>
<path d="M26.4841 26.5063L24.7402 25.8017L26.3167 24.4102L26.4841 26.5063Z" fill="#1B1B1B"/>
<path d="M25.986 25.2287L25.4804 25.675L26.0397 25.9009L25.986 25.2287ZM26.6474 23.5916L26.9285 27.1117L24 25.9285L26.6474 23.5916Z" fill="#1B1B1B"/>
<path d="M25.9 25.2C26.1906 24.7086 24.3892 28.7595 20.4196 28.7595C16.45 28.7595 15.05 25.2 15.05 25.2" stroke="#1B1B1B" stroke-width="1.2"/>
</svg>
