<svg width="36" height="36" viewBox="0 0 36 36" fill="none" xmlns="http://www.w3.org/2000/svg">
<g clip-path="url(#clip0_1_14)">
<path d="M35.4603 0.0793686H0.460316V35.0794H35.4603V0.0793686Z" fill="white"/>
<path d="M23.7729 18.1117H20.9002V26.0794H19.7277V18.1117H16.8611V17.1419H23.7729V18.1117Z" fill="#1B1B1B"/>
<path d="M23.7729 18.1117V18.4609H24.1221V18.1117H23.7729ZM20.9002 18.1117V17.7625H20.551V18.1117H20.9002ZM20.9002 26.0794V26.4286H21.2494V26.0794H20.9002ZM19.7277 26.0794H19.3785V26.4286H19.7277V26.0794ZM19.7277 18.1117H20.0769V17.7625H19.7277V18.1117ZM16.8611 18.1117H16.5119V18.4609H16.8611V18.1117ZM16.8611 17.1419V16.7927H16.5119V17.1419H16.8611ZM23.7729 17.1419H24.1221V16.7927H23.7729V17.1419ZM23.7729 17.7625H20.9002V18.4609H23.7729V17.7625ZM20.551 18.1117V26.0794H21.2494V18.1117H20.551ZM20.9002 25.7302H19.7277V26.4286H20.9002V25.7302ZM20.0769 26.0794V18.1117H19.3785V26.0794H20.0769ZM19.7277 17.7625H16.8611V18.4609H19.7277V17.7625ZM17.2103 18.1117V17.1419H16.5119V18.1117H17.2103ZM16.8611 17.4911H23.7729V16.7927H16.8611V17.4911ZM23.4237 17.1419V18.1117H24.1221V17.1419H23.4237Z" fill="#1B1B1B"/>
<path d="M12.7103 29.1294H28.1103" stroke="#1B1B1B" stroke-width="1.5"/>
<path d="M28.5 30.9468V27.1119L31.0566 29.0294L28.5 30.9468Z" fill="#1B1B1B"/>
<path d="M29.5849 29.0294L28.75 28.4032V29.6555L29.5849 29.0294ZM31 29.0294L28 31.2794V26.7794L31 29.0294Z" fill="#1B1B1B"/>
<path d="M12.5566 30.9468V27.1119L10 29.0294L12.5566 30.9468Z" fill="#1B1B1B"/>
<path d="M11.4717 29.0294L12.3066 28.4032V29.6555L11.4717 29.0294ZM10.0566 29.0294L13.0566 31.2794V26.7794L10.0566 29.0294Z" fill="#1B1B1B"/>
<path d="M10.6978 4.45437C9.67677 4.45437 8.67865 4.75714 7.82968 5.32441C6.98071 5.89167 6.31902 6.69794 5.92829 7.64127C5.53755 8.58459 5.43531 9.6226 5.63451 10.624C5.83371 11.6254 6.32539 12.5453 7.04738 13.2673C7.76936 13.9893 8.68923 14.481 9.69066 14.6802C10.6921 14.8794 11.7301 14.7771 12.6734 14.3864C13.6167 13.9957 14.423 13.334 14.9903 12.485C15.5575 11.636 15.8603 10.6379 15.8603 9.61687C15.8604 8.93889 15.7269 8.26754 15.4675 7.64116C15.2081 7.01477 14.8279 6.44563 14.3485 5.96622C13.8691 5.48682 13.2999 5.10656 12.6735 4.84715C12.0471 4.58775 11.3758 4.45428 10.6978 4.45437V4.45437ZM12.9441 10.0138H11.0947V11.8625C11.0947 11.9678 11.0529 12.0689 10.9784 12.1434C10.9039 12.2179 10.8028 12.2597 10.6975 12.2597C10.5921 12.2597 10.4911 12.2179 10.4166 12.1434C10.3421 12.0689 10.3002 11.9678 10.3002 11.8625V10.0138H8.45151C8.34616 10.0138 8.24512 9.97192 8.17062 9.89742C8.09612 9.82292 8.05426 9.72188 8.05426 9.61652C8.05426 9.51116 8.09612 9.41012 8.17062 9.33562C8.24512 9.26112 8.34616 9.21927 8.45151 9.21927H10.3002V7.37057C10.3002 7.26521 10.3421 7.16417 10.4166 7.08967C10.4911 7.01517 10.5921 6.97332 10.6975 6.97332C10.8028 6.97332 10.9039 7.01517 10.9784 7.08967C11.0529 7.16417 11.0947 7.26521 11.0947 7.37057V9.21927H12.9434C13.0488 9.21927 13.1498 9.26112 13.2243 9.33562C13.2988 9.41012 13.3407 9.51116 13.3407 9.61652C13.3407 9.72188 13.2988 9.82292 13.2243 9.89742C13.1498 9.97192 13.0488 10.0138 12.9434 10.0138H12.9441Z" stroke="#FF8800" stroke-width="0.698413"/>
</g>
<defs>
<clipPath id="clip0_1_14">
<rect width="35" height="35" fill="white" transform="translate(0.460316 0.0793686)"/>
</clipPath>
</defs>
</svg>
