<svg width="114" height="114" viewBox="0 0 114 114" fill="none" xmlns="http://www.w3.org/2000/svg">
<path d="M8.79938 50.5909C8.79938 50.5909 19.0551 14.491 60.2271 14.017C101.399 13.543 110.255 54.258 110.255 54.258" stroke="white"/>
<path d="M1.97357 50.732C1.97357 50.732 6.97736 92.2763 45.7467 101.773C84.5161 111.27 107.463 75.0861 107.463 75.0861" stroke="white"/>
<path d="M59.4996 106.012C86.2854 106.012 108 84.2978 108 57.512C108 30.7261 86.2854 9.01196 59.4996 9.01196C32.7138 9.01196 10.9996 30.7261 10.9996 57.512C10.9996 84.2978 32.7138 106.012 59.4996 106.012Z" stroke="white" stroke-width="4"/>
<path d="M113.137 53.797C112.028 41.0876 106.404 29.1956 97.2836 20.275C88.2492 11.4239 76.2367 6.26316 63.5976 5.80296C57.2963 5.57294 51.0083 6.5341 45.0636 8.63596C39.0905 10.7607 33.5848 14.0206 28.8496 18.236C24.1 22.4584 20.224 27.5708 17.4406 33.284C14.6704 38.9897 13.0722 45.193 12.7406 51.527C12.387 58.1281 13.3574 64.7334 15.5946 70.954C17.8162 77.0951 21.2419 82.7306 25.6708 87.5301C30.0996 92.3295 35.4424 96.1961 41.3856 98.903C47.2311 101.546 53.546 102.994 59.9591 103.163C66.3723 103.331 72.7544 102.216 78.7306 99.883C84.6114 97.5648 89.9666 94.0891 94.4786 89.662C98.9475 85.288 102.493 80.0614 104.905 74.292C107.282 68.5897 108.477 62.4639 108.417 56.286C108.448 54.696 106.823 54.712 106.733 56.244C106.633 57.53 106.652 58.828 106.494 60.106L105.933 63.934L105.023 67.691C104.723 68.948 104.197 70.133 103.811 71.366C100.022 81.3876 92.9613 89.8368 83.772 95.3451C74.5826 100.853 63.8028 103.098 53.1786 101.716C47.6456 100.956 42.2833 99.2555 37.3236 96.688C32.2485 94.0589 27.6647 90.5745 23.7736 86.388C19.8061 82.099 16.6445 77.1299 14.4406 71.719C12.1897 66.2056 10.9118 60.3438 10.6636 54.394C10.4214 48.3362 11.2924 42.2854 13.2336 36.542C17.1573 24.6782 25.313 14.6751 36.1435 8.44255C46.974 2.20998 59.7206 0.184545 71.9496 2.75296C83.997 5.3115 94.6376 12.3168 101.75 22.372L103.26 21.602C95.9247 13.212 86.1089 7.37543 75.2346 4.93796C69.9163 3.71419 64.4323 3.37866 59.0046 3.94496C53.6214 4.43536 48.3532 5.79428 43.4046 7.96896C38.5174 10.1522 33.9872 13.0596 29.9666 16.593C26.0168 20.135 22.6493 24.2767 19.9876 28.866C18.6615 31.1382 17.5044 33.5049 16.5256 35.947L15.2676 39.675C14.8396 40.912 14.6446 42.219 14.3186 43.483C14.1846 44.123 13.9996 44.75 13.9056 45.397L13.6586 47.341C13.449 48.6275 13.3224 49.9262 13.2796 51.229L13.1796 55.129L13.4666 59.015C14.0152 64.1659 15.3356 69.2049 17.3836 73.963C19.5162 78.6492 22.3367 82.9907 25.7516 86.844C29.1457 90.6877 33.1455 93.9508 37.5926 96.504L39.2396 97.481C39.8026 97.781 40.3916 98.028 40.9656 98.304L42.6966 99.117C43.2635 99.409 43.8535 99.6538 44.4606 99.849L48.0606 101.132L51.7696 102.055C56.7552 103.106 61.8686 103.415 66.9446 102.973C72.0075 102.436 76.9643 101.159 81.6566 99.183C86.3365 97.1495 90.669 94.3954 94.4966 91.021C98.3767 87.6788 101.687 83.7271 104.297 79.321C105.197 77.895 103.697 77.121 102.839 78.476C100.321 82.7306 97.1243 86.5449 93.3756 89.768C89.6827 93.0246 85.5019 95.6819 80.9856 97.643C76.4558 99.5475 71.6718 100.78 66.7856 101.3C61.8853 101.725 56.9491 101.428 52.1356 100.416L48.5586 99.528L45.0856 98.289C44.5002 98.1017 43.9316 97.8659 43.3856 97.584L41.7146 96.799C41.1606 96.533 40.5916 96.292 40.0466 96.007L38.4586 95.063C34.1634 92.6018 30.3 89.4542 27.0216 85.745C23.7249 82.025 20.9998 77.8356 18.9356 73.314C16.9579 68.7208 15.68 63.8571 15.1446 58.885L14.8636 55.129L14.9636 51.359C15.0046 50.1002 15.1258 48.8453 15.3266 47.602L15.5636 45.725C15.6526 45.101 15.8326 44.495 15.9636 43.877C16.2766 42.656 16.4586 41.393 16.8766 40.199L18.0836 36.599C19.0292 34.2402 20.1455 31.9534 21.4236 29.757C23.9914 25.3179 27.2434 21.3117 31.0596 17.886C34.9419 14.4662 39.3173 11.6509 44.0386 9.53496C48.8208 7.42576 53.9137 6.10662 59.1186 5.62896C64.3681 5.07435 69.6733 5.39334 74.8186 6.57296C85.346 8.9219 94.8526 14.5608 101.962 22.673C102.862 23.803 104.351 23.333 103.462 21.924C96.2284 11.4452 85.3221 4.06667 72.9046 1.25096C60.2958 -1.55235 47.0961 0.392849 35.832 6.71422C24.5679 13.0356 16.0307 23.289 11.8546 35.512C7.772 47.3589 8.08861 60.2792 12.7466 71.912C17.0299 82.9395 25.0895 92.0879 35.4892 97.727C45.8888 103.366 57.9529 105.13 69.5316 102.703C77.6073 101.027 85.1275 97.3344 91.3923 91.9697C97.6571 86.6051 102.463 79.7425 105.362 72.021C105.769 70.74 106.306 69.503 106.626 68.198L107.579 64.286L108.166 60.302C108.332 58.971 108.318 57.622 108.416 56.282L106.732 56.24C106.797 62.1925 105.654 68.0964 103.371 73.594C101.051 79.1593 97.638 84.2028 93.3346 88.426C88.9859 92.7017 83.8228 96.0604 78.1516 98.303C72.3867 100.559 66.229 101.64 60.0404 101.483C53.8517 101.325 47.757 99.9319 42.1146 97.385C36.3728 94.7756 31.2101 91.0457 26.9293 86.4142C22.6485 81.7828 19.3358 76.3429 17.1856 70.414C15.0197 64.405 14.0785 58.0233 14.4176 51.645C14.7352 45.525 16.2787 39.5311 18.9566 34.019C21.6439 28.4948 25.3902 23.5522 29.9826 19.472C34.5595 15.4021 39.8806 12.2563 45.6526 10.208C51.3947 8.18174 57.4675 7.25658 63.5526 7.48096C75.7606 7.93139 87.3623 12.9166 96.0916 21.463C104.907 30.079 110.356 41.5609 111.454 53.839" stroke="white" stroke-width="0.5"/>
<path d="M5.99957 59.797C7.10838 47.0876 12.7323 35.1956 21.8526 26.275C30.887 17.424 42.8994 12.2633 55.5386 11.803C61.8398 11.5729 68.1278 12.5341 74.0726 14.636C80.0456 16.7607 85.5513 20.0206 90.2866 24.236C95.037 28.4608 98.9131 33.5759 101.696 39.292C104.466 44.9977 106.064 51.201 106.396 57.535C106.749 64.1361 105.779 70.7414 103.542 76.962C101.319 83.1016 97.8929 88.7356 93.4641 93.5336C89.0353 98.3316 83.693 102.197 77.7506 104.903C71.905 107.546 65.5902 108.994 59.177 109.163C52.7638 109.331 46.3817 108.216 40.4056 105.883C34.5248 103.565 29.1695 100.089 24.6576 95.662C20.189 91.2879 16.644 86.0613 14.2326 80.292C11.8547 74.5897 10.6599 68.4639 10.7206 62.286C10.6896 60.696 12.3146 60.712 12.4046 62.244C12.5046 63.53 12.4856 64.828 12.6436 66.106L13.2046 69.934L14.1146 73.691C14.4146 74.948 14.9406 76.133 15.3266 77.366C19.1152 87.3875 26.176 95.8366 35.3653 101.345C44.5546 106.853 55.3343 109.098 65.9586 107.716C71.4915 106.956 76.8538 105.255 81.8136 102.688C86.8886 100.059 91.4724 96.5745 95.3636 92.388C99.331 88.099 102.493 83.1299 104.697 77.719C106.947 72.2056 108.225 66.3438 108.474 60.394C108.716 54.3362 107.845 48.2854 105.904 42.542C101.98 30.678 93.8239 20.6748 82.9932 14.4422C72.1625 8.20957 59.4157 6.18427 47.1866 8.75296C35.1391 11.3115 24.4986 18.3168 17.3866 28.372L15.8766 27.602C23.2123 19.2115 33.0292 13.3748 43.9046 10.938C49.2238 9.71386 54.7088 9.37833 60.1376 9.94496C65.5207 10.4354 70.7889 11.7943 75.7376 13.969C80.6233 16.1526 85.1521 19.0599 89.1716 22.593C93.1213 26.135 96.4889 30.2767 99.1506 34.866C100.477 37.1382 101.634 39.5049 102.613 41.947L103.871 45.675C104.299 46.912 104.494 48.219 104.82 49.483C104.954 50.123 105.139 50.75 105.233 51.397L105.48 53.341C105.689 54.6275 105.816 55.9262 105.859 57.229L105.959 61.129L105.672 65.015C105.123 70.1659 103.803 75.2049 101.755 79.963C99.6219 84.6492 96.8015 88.9907 93.3866 92.844C89.9924 96.6877 85.9926 99.9508 81.5456 102.504L79.8986 103.481C79.3356 103.781 78.7466 104.028 78.1726 104.304L76.4416 105.117C75.8747 105.409 75.2847 105.654 74.6776 105.849L71.0776 107.132L67.3686 108.055C62.3829 109.106 57.2695 109.415 52.1936 108.973C47.1306 108.436 42.1738 107.159 37.4816 105.183C32.8016 103.149 28.4691 100.395 24.6416 97.021C20.7615 93.6788 17.4515 89.7271 14.8416 85.321C13.9416 83.895 15.4416 83.121 16.2996 84.476C18.8174 88.7306 22.0139 92.5449 25.7626 95.768C29.4554 99.0246 33.6362 101.682 38.1526 103.643C42.6824 105.548 47.4663 106.78 52.3526 107.3C57.2528 107.725 62.189 107.428 67.0026 106.416L70.5796 105.528L74.0526 104.289C74.6379 104.102 75.2066 103.866 75.7526 103.584L77.4236 102.799C77.9776 102.533 78.5466 102.292 79.0916 102.007L80.6796 101.063C84.9748 98.6018 88.8382 95.4542 92.1166 91.745C95.414 88.0252 98.1398 83.8357 100.205 79.314C102.182 74.7208 103.46 69.8571 103.996 64.885L104.277 61.129L104.177 57.359C104.136 56.1002 104.014 54.8453 103.814 53.602L103.577 51.725C103.488 51.101 103.308 50.495 103.177 49.877C102.864 48.656 102.682 47.393 102.264 46.199L101.057 42.599C100.111 40.2402 98.9947 37.9534 97.7166 35.757C95.1487 31.3179 91.8967 27.3117 88.0806 23.886C84.1995 20.465 79.825 17.6484 75.1046 15.531C70.3223 13.4218 65.2294 12.1026 60.0246 11.625C54.775 11.0704 49.4699 11.3893 44.3246 12.569C33.7971 14.9179 24.2905 20.5568 17.1816 28.669C16.2816 29.799 14.7926 29.329 15.6816 27.92C22.9145 17.4435 33.8191 10.0666 46.2346 7.25096C58.8433 4.44765 72.0431 6.39285 83.3072 12.7142C94.5713 19.0356 103.108 29.289 107.285 41.512C111.367 53.3588 111.051 66.2793 106.393 77.912C102.109 88.9401 94.0491 98.089 83.6488 103.728C73.2484 109.367 61.1836 111.13 49.6046 108.703C41.5293 107.027 34.0093 103.335 27.7446 97.9714C21.4799 92.6075 16.6741 85.7458 13.7746 78.025C13.3676 76.744 12.8306 75.507 12.5106 74.202L11.5576 70.29L10.9706 66.303C10.8046 64.972 10.8186 63.623 10.7206 62.283L12.4046 62.241C12.3386 68.1935 13.4821 74.0974 15.7656 79.595C18.086 85.1616 21.4997 90.2062 25.8046 94.43C30.1527 98.7039 35.3147 102.061 40.9846 104.303C46.7494 106.559 52.9071 107.64 59.0958 107.483C65.2844 107.325 71.3791 105.932 77.0216 103.385C82.7633 100.776 87.926 97.0457 92.2068 92.4142C96.4877 87.7828 99.8004 82.3429 101.951 76.414C104.116 70.405 105.058 64.0233 104.719 57.645C104.401 51.525 102.857 45.5311 100.18 40.019C97.4922 34.4948 93.746 29.5522 89.1536 25.472C84.5767 21.4021 79.2555 18.2563 73.4836 16.208C67.7414 14.1817 61.6686 13.2566 55.5836 13.481C43.3755 13.9314 31.7738 18.9166 23.0446 27.463C14.2286 36.079 8.7806 47.5609 7.68257 59.839" stroke="white" stroke-width="0.5"/>
<path d="M32.4771 37.7524V47H31.261V40.1044L28.1874 47H27.3321L24.2451 40.091V47H23.029V37.7524H24.3386L27.7597 45.3964L31.1808 37.7524H32.4771ZM40.8471 39.6767L36.4371 50.4478H35.1809L36.6242 46.9198L33.6708 39.6767H35.0206L37.3191 45.6102L39.5909 39.6767H40.8471ZM48.5857 47.0935C47.971 47.0935 47.4186 46.9866 46.9286 46.7728C46.4475 46.5501 46.0689 46.2472 45.7927 45.8641C45.5165 45.4721 45.374 45.0222 45.3651 44.5144H46.6613C46.7059 44.9509 46.8841 45.3206 47.1959 45.6235C47.5166 45.9175 47.9799 46.0645 48.5857 46.0645C49.1648 46.0645 49.6192 45.922 49.9488 45.6369C50.2873 45.3429 50.4566 44.9687 50.4566 44.5144C50.4566 44.158 50.3586 43.8685 50.1626 43.6457C49.9666 43.423 49.7216 43.2537 49.4276 43.1379C49.1336 43.0221 48.7372 42.8974 48.2382 42.7637C47.6235 42.6034 47.1291 42.443 46.7549 42.2826C46.3896 42.1223 46.0733 41.8728 45.8061 41.5343C45.5477 41.1868 45.4185 40.7235 45.4185 40.1445C45.4185 39.6366 45.5477 39.1867 45.8061 38.7947C46.0644 38.4027 46.4252 38.0998 46.8885 37.886C47.3607 37.6722 47.8997 37.5653 48.5055 37.5653C49.3786 37.5653 50.0913 37.7835 50.6437 38.2201C51.205 38.6566 51.5212 39.2357 51.5925 39.9574H50.2562C50.2116 39.601 50.0245 39.2892 49.6949 39.0219C49.3652 38.7457 48.9287 38.6076 48.3852 38.6076C47.8774 38.6076 47.4632 38.7413 47.1424 39.0085C46.8217 39.2669 46.6613 39.6322 46.6613 40.1044C46.6613 40.4429 46.7549 40.7191 46.942 40.9329C47.138 41.1467 47.3741 41.3115 47.6502 41.4274C47.9353 41.5343 48.3318 41.659 48.8396 41.8015C49.4543 41.9708 49.9488 42.1401 50.323 42.3094C50.6972 42.4697 51.0179 42.7236 51.2852 43.0711C51.5524 43.4096 51.6861 43.8729 51.6861 44.4609C51.6861 44.9153 51.5658 45.3429 51.3252 45.7438C51.0847 46.1447 50.7283 46.4699 50.2562 46.7194C49.784 46.9688 49.2272 47.0935 48.5857 47.0935ZM54.959 40.679V44.9955C54.959 45.3518 55.0347 45.6057 55.1862 45.7572C55.3376 45.8997 55.6005 45.971 55.9746 45.971H56.87V47H55.7742C55.0971 47 54.5893 46.8441 54.2507 46.5323C53.9122 46.2205 53.7429 45.7082 53.7429 44.9955V40.679H52.7941V39.6767H53.7429V37.8325H54.959V39.6767H56.87V40.679H54.959ZM57.8891 43.3116C57.8891 42.5633 58.0405 41.9085 58.3435 41.3472C58.6464 40.777 59.0606 40.336 59.5863 40.0242C60.1208 39.7124 60.7133 39.5565 61.3636 39.5565C62.0051 39.5565 62.5619 39.6945 63.0341 39.9707C63.5063 40.2469 63.8582 40.5944 64.0898 41.0131V39.6767H65.3193V47H64.0898V45.6369C63.8493 46.0645 63.4885 46.4209 63.0074 46.706C62.5352 46.9822 61.9828 47.1203 61.3503 47.1203C60.6999 47.1203 60.1119 46.9599 59.5863 46.6392C59.0606 46.3185 58.6464 45.8685 58.3435 45.2895C58.0405 44.7104 57.8891 44.0511 57.8891 43.3116ZM64.0898 43.325C64.0898 42.7726 63.9785 42.2915 63.7557 41.8817C63.533 41.4719 63.2301 41.1601 62.847 40.9463C62.4728 40.7235 62.0585 40.6122 61.6042 40.6122C61.1498 40.6122 60.7355 40.7191 60.3614 40.9329C59.9872 41.1467 59.6887 41.4585 59.466 41.8684C59.2433 42.2782 59.1319 42.7593 59.1319 43.3116C59.1319 43.8729 59.2433 44.3629 59.466 44.7816C59.6887 45.1915 59.9872 45.5077 60.3614 45.7305C60.7355 45.9443 61.1498 46.0512 61.6042 46.0512C62.0585 46.0512 62.4728 45.9443 62.847 45.7305C63.2301 45.5077 63.533 45.1915 63.7557 44.7816C63.9785 44.3629 64.0898 43.8774 64.0898 43.325ZM76.181 39.5431C76.7512 39.5431 77.259 39.6634 77.7044 39.9039C78.1499 40.1355 78.5018 40.4875 78.7602 40.9596C79.0185 41.4318 79.1477 42.0065 79.1477 42.6835V47H77.945V42.8573C77.945 42.1267 77.7623 41.5699 77.3971 41.1868C77.0407 40.7948 76.5552 40.5988 75.9404 40.5988C75.3079 40.5988 74.8045 40.8037 74.4303 41.2135C74.0562 41.6145 73.8691 42.198 73.8691 42.9642V47H72.6663V42.8573C72.6663 42.1267 72.4837 41.5699 72.1184 41.1868C71.7621 40.7948 71.2765 40.5988 70.6618 40.5988C70.0293 40.5988 69.5259 40.8037 69.1517 41.2135C68.7775 41.6145 68.5904 42.198 68.5904 42.9642V47H67.3743V39.6767H68.5904V40.7325C68.831 40.3494 69.1517 40.0554 69.5526 39.8505C69.9624 39.6455 70.4123 39.5431 70.9023 39.5431C71.5171 39.5431 72.0605 39.6812 72.5327 39.9574C73.0049 40.2335 73.3568 40.6389 73.5884 41.1735C73.7933 40.6567 74.1319 40.2558 74.6041 39.9707C75.0763 39.6856 75.6019 39.5431 76.181 39.5431ZM82.3586 41.0265C82.5992 40.6077 82.9555 40.2603 83.4277 39.9841C83.9088 39.699 84.4656 39.5565 85.0982 39.5565C85.7485 39.5565 86.3365 39.7124 86.8622 40.0242C87.3967 40.336 87.8155 40.777 88.1184 41.3472C88.4213 41.9085 88.5727 42.5633 88.5727 43.3116C88.5727 44.0511 88.4213 44.7104 88.1184 45.2895C87.8155 45.8685 87.3967 46.3185 86.8622 46.6392C86.3365 46.9599 85.7485 47.1203 85.0982 47.1203C84.4745 47.1203 83.9222 46.9822 83.4411 46.706C82.9689 46.4209 82.6081 46.069 82.3586 45.6503V50.4745H81.1425V39.6767H82.3586V41.0265ZM87.3299 43.3116C87.3299 42.7593 87.2185 42.2782 86.9958 41.8684C86.7731 41.4585 86.4702 41.1467 86.0871 40.9329C85.7129 40.7191 85.2986 40.6122 84.8443 40.6122C84.3988 40.6122 83.9845 40.7235 83.6015 40.9463C83.2273 41.1601 82.9244 41.4764 82.6927 41.8951C82.47 42.3049 82.3586 42.7815 82.3586 43.325C82.3586 43.8774 82.47 44.3629 82.6927 44.7816C82.9244 45.1915 83.2273 45.5077 83.6015 45.7305C83.9845 45.9443 84.3988 46.0512 84.8443 46.0512C85.2986 46.0512 85.7129 45.9443 86.0871 45.7305C86.4702 45.5077 86.7731 45.1915 86.9958 44.7816C87.2185 44.3629 87.3299 43.8729 87.3299 43.3116Z" fill="white"/>
<path d="M40.8588 54.3543V71H38.6698V58.5879L33.1373 71H31.5978L26.0412 58.5638V71H23.8522V54.3543H26.2095L32.3675 68.1135L38.5255 54.3543H40.8588ZM43.7532 64.3609C43.7532 63.0139 44.0258 61.8352 44.5711 60.8249C45.1163 59.7986 45.862 59.0048 46.8081 58.4435C47.7703 57.8823 48.8367 57.6016 50.0074 57.6016C51.162 57.6016 52.1643 57.8502 53.0142 58.3473C53.8641 58.8444 54.4976 59.4699 54.9145 60.2236V57.8181H57.1275V71H54.9145V68.5464C54.4815 69.3162 53.8321 69.9576 52.9661 70.4708C52.1162 70.9679 51.1219 71.2165 49.9833 71.2165C48.8127 71.2165 47.7543 70.9278 46.8081 70.3505C45.862 69.7732 45.1163 68.9634 44.5711 67.921C44.0258 66.8787 43.7532 65.692 43.7532 64.3609ZM54.9145 64.385C54.9145 63.3907 54.7141 62.5248 54.3131 61.7871C53.9122 61.0494 53.367 60.4882 52.6774 60.1033C52.0039 59.7024 51.2582 59.5019 50.4404 59.5019C49.6225 59.5019 48.8768 59.6944 48.2033 60.0792C47.5298 60.4641 46.9925 61.0254 46.5916 61.7631C46.1907 62.5007 45.9903 63.3667 45.9903 64.3609C45.9903 65.3712 46.1907 66.2532 46.5916 67.0069C46.9925 67.7446 47.5298 68.3139 48.2033 68.7148C48.8768 69.0997 49.6225 69.2921 50.4404 69.2921C51.2582 69.2921 52.0039 69.0997 52.6774 68.7148C53.367 68.3139 53.9122 67.7446 54.3131 67.0069C54.7141 66.2532 54.9145 65.3793 54.9145 64.385ZM68.1874 71L63.0156 65.1788V71H60.8267V53.1996H63.0156V63.6634L68.0911 57.8181H71.1461L64.94 64.385L71.1701 71H68.1874ZM85.2336 63.9039C85.2336 64.3209 85.2095 64.7619 85.1614 65.2269H74.6255C74.7057 66.5259 75.1467 67.5442 75.9485 68.2818C76.7664 69.0035 77.7526 69.3643 78.9072 69.3643C79.8534 69.3643 80.6392 69.1478 81.2646 68.7148C81.906 68.2658 82.355 67.6725 82.6116 66.9348H84.969C84.6162 68.2017 83.9106 69.236 82.8522 70.0378C81.7938 70.8236 80.4788 71.2165 78.9072 71.2165C77.6564 71.2165 76.5338 70.9359 75.5396 70.3746C74.5614 69.8133 73.7916 69.0195 73.2304 67.9932C72.6691 66.9508 72.3884 65.7481 72.3884 64.385C72.3884 63.0219 72.6611 61.8272 73.2063 60.8009C73.7515 59.7745 74.5133 58.9888 75.4915 58.4435C76.4857 57.8823 77.6243 57.6016 78.9072 57.6016C80.1581 57.6016 81.2646 57.8742 82.2268 58.4195C83.1889 58.9647 83.9266 59.7184 84.4398 60.6806C84.969 61.6267 85.2336 62.7012 85.2336 63.9039ZM82.9724 63.4469C82.9724 62.613 82.788 61.8994 82.4192 61.306C82.0504 60.6966 81.5452 60.2396 80.9038 59.9349C80.2783 59.6142 79.5808 59.4538 78.811 59.4538C77.7045 59.4538 76.7584 59.8066 75.9726 60.5122C75.2028 61.2178 74.7618 62.196 74.6496 63.4469H82.9724ZM90.3119 59.959C90.6968 59.2053 91.242 58.6199 91.9476 58.203C92.6692 57.786 93.5432 57.5776 94.5696 57.5776V59.8387H93.9922C91.5387 59.8387 90.3119 61.1697 90.3119 63.8317V71H88.1229V57.8181H90.3119V59.959Z" fill="white"/>
</svg>
